<svg width="168" height="75" viewBox="0 0 168 75" fill="none" xmlns="http://www.w3.org/2000/svg">
    <path d="M107.118 18.2998C111.343 18.2998 114.774 14.868 114.774 10.6432C114.774 6.41835 111.343 2.98657 107.118 2.98657C102.893 2.98657 99.4614 6.41835 99.4614 10.6432C99.4614 14.8825 102.893 18.2998 107.118 18.2998Z" fill="#00A3FF"/>
    <path d="M28.3173 24.0246C30.8119 25.8414 32.2105 28.5089 31.4463 32.3157L26.5149 58.6884C25.794 62.9853 21.6557 65.8115 17.3588 65.004C13.3069 64.2254 10.3221 60.4188 11.1297 55.8478L13.9269 40.5779L12.1822 41.3709C8.9523 42.8272 5.14565 41.3709 3.70372 38.1122C2.2618 34.8534 3.70372 31.0323 6.93363 29.5615L19.9542 23.7794C23.0255 22.2366 25.9526 22.4384 28.3173 24.0246Z" fill="#00A3FF"/>
    <path d="M33.2979 22.7549C34.9993 24.788 36.9973 27.3402 36.0168 33.3963L33.3492 47.6857L33.8394 59.1923C33.9404 63.2874 35.9014 65.133 39.362 65.133H48.0424C50.7965 65.133 51.9067 63.0278 53.017 60.3746L59.6355 44.0377L60.3132 59.6393C60.3709 63.0999 62.13 65.1474 65.3023 65.1474H75.1938C78.0055 65.1474 79.1735 63.4459 80.4136 60.4035L93.0451 29.1137C94.415 25.8694 93.6217 22.7405 90.2043 22.7405H83.8453C81.4806 22.7405 79.9089 23.5479 78.9716 25.7974L70.4499 46.7629L69.6712 28.0612C69.5415 24.0814 67.6381 22.7549 65.432 22.7549H58.9866C56.4344 22.7549 54.9492 23.7498 54.1562 25.6964L45.5911 46.7774L44.8269 27.6141C44.7116 24.0238 43.5292 22.7549 40.6453 22.7549H35.0795C34.9741 22.7549 33.2979 22.7549 33.2979 22.7549Z" fill="white"/>
    <path d="M102.244 65.133C106.065 65.133 107.003 62.2637 107.551 59.0193L112.958 29.3445C113.938 24.8024 112.828 22.7261 108.487 22.7261H103.369C99.1875 22.7261 97.7601 24.7736 97.1974 28.1189L91.6168 59.5095C91.0697 62.6673 92.2082 65.133 95.4526 65.133H102.244Z" fill="white"/>
    <path d="M140.398 59.3798L143.095 43.187C143.47 40.2166 142.922 38.1114 141.336 36.7848C138.827 34.7373 135.28 35.6313 133.477 37.6933C132.309 38.9333 131.79 40.6204 131.17 44.0377L128.46 59.0337C127.94 61.9897 127.118 65.133 123.196 65.133H116.52C112.353 65.133 112.065 61.4994 112.541 59.3798L118.179 28.1189C118.727 25.2494 119.735 22.7405 124.35 22.7405H129.137C132.842 22.7405 135.063 24.0959 133.896 29.3445L133.39 31.94C135.943 26.7058 142.23 22.7261 147.752 22.7261C151.934 22.7261 153.851 23.4615 156.173 25.5522C160.037 29.0129 160.758 34.2038 159.893 38.3132L156.043 59.0193C155.51 62.1482 154.688 65.133 150.91 65.133H144.263C141.365 65.133 139.822 63.0134 140.398 59.3798Z" fill="white"/>
</svg>
