<svg width="32" height="16" viewBox="0 0 32 16" fill="none" xmlns="http://www.w3.org/2000/svg">
<g opacity="0.24">
<path d="M8.89721 0.490987C9.77889 1.17617 10.2732 2.1822 10.0031 3.61782L8.26016 13.5639C8.00534 15.1844 6.54267 16.2502 5.02394 15.9457C3.59185 15.6521 2.5369 14.2164 2.82229 12.4926L3.81099 6.73378L3.19433 7.03287C2.05274 7.5821 0.707285 7.03287 0.197645 5.80388C-0.311996 4.5749 0.197645 3.13384 1.33924 2.57917L5.9413 0.398545C7.02683 -0.183318 8.0614 -0.10719 8.89721 0.490987Z" fill="url(#paint0_linear_4602_33587)" fill-opacity="0.42"/>
<path d="M10.6577 0.0123638C11.2591 0.779118 11.9652 1.74164 11.6187 4.02558L10.6758 9.41461L10.8491 13.7541C10.8848 15.2985 11.5779 15.9946 12.801 15.9946H15.8691C16.8425 15.9946 17.2349 15.2006 17.6273 14.2L19.9666 8.03881L20.2061 13.9227C20.2265 15.2278 20.8483 16 21.9695 16H25.4656C26.4594 16 26.8722 15.3583 27.3105 14.2109L31.775 2.41051C32.2591 1.18697 31.9788 0.00692658 30.771 0.00692658H28.5234C27.6876 0.00692658 27.1321 0.311453 26.8009 1.15978L23.7889 9.06659L23.5137 2.01354C23.4678 0.512657 22.7951 0.0123638 22.0153 0.0123638H19.7372C18.8352 0.0123638 18.3103 0.387584 18.0299 1.12171L15.0027 9.07203L14.7326 1.84496C14.6918 0.490905 14.2739 0.0123638 13.2546 0.0123638H11.2874C11.2501 0.0123638 10.6577 0.0123638 10.6577 0.0123638Z" fill="url(#paint1_linear_4602_33587)" fill-opacity="0.42"/>
</g>
<defs>
<linearGradient id="paint0_linear_4602_33587" x1="16" y1="0" x2="16" y2="16" gradientUnits="userSpaceOnUse">
<stop stop-color="#EBF0FF"/>
<stop offset="1" stop-color="#8D9099"/>
</linearGradient>
<linearGradient id="paint1_linear_4602_33587" x1="16" y1="0" x2="16" y2="16" gradientUnits="userSpaceOnUse">
<stop stop-color="#EBF0FF"/>
<stop offset="1" stop-color="#8D9099"/>
</linearGradient>
</defs>
</svg>
