<svg xmlns="http://www.w3.org/2000/svg" width="16" height="21" viewBox="0 0 16 21"><defs><linearGradient id="a" x1="50%" x2="50%" y1="0%" y2="100%"><stop offset="0%" stop-color="#F5CC24"/><stop offset="100%" stop-color="#F89407"/></linearGradient><linearGradient id="b" x1="50%" x2="50%" y1="0%" y2="100%"><stop offset="0%" stop-color="#FC4A62"/><stop offset="96.87%" stop-color="#EE0024"/></linearGradient></defs><g fill="none"><path fill="url(#a)" d="M3.2 19.1a14.81 14.81 0 0 1-2.56-3.59 8.06 8.06 0 0 1-.49-4.69 10.06 10.06 0 0 1 2.04-4.34 4.14 4.14 0 0 0 1.06 3.07c-.44-2.1.27-4.38 1.69-6.05S8.3.75 10.34 0C9.34 1.05 9.2 2.72 9.6 4.12c.4 1.4 1.25 2.63 2 3.9s1.46 2.58 1.5 4.03c.4-.75.85-1.5 1.11-2.32.27-.84.4-1.71.18-2.54.8.96 1.24 1.92 1.47 3.15.22 1.23.17 2.5.04 3.72a9.24 9.24 0 0 1-1.29 3.9 7.4 7.4 0 0 1-3.85 2.85c-2.75.48-5.46.09-7.54-1.7z"/><path fill="url(#b)" d="M6.02 20.73c3.75 1.38 7.45-2.81 5.4-6.06 0-.04-.05-.04-.05-.09.18 1.78-.28 3.08-1.15 3.81.46-1.04.14-2.25-.4-3.29-.56-1-1.33-1.9-1.93-2.85-.6-1-1.05-2.12-.77-3.25a5.69 5.69 0 0 0-2.2 3.2 5.51 5.51 0 0 0 .46 3.81 2.81 2.81 0 0 1-1.23-2.08A4.31 4.31 0 0 0 3 16.92c0 1.69 1.42 3.2 3.02 3.8z"/></g></svg>